<svg xmlns="http://www.w3.org/2000/svg" xmlns:xlink="http://www.w3.org/1999/xlink" width="100" zoomAndPan="magnify" viewBox="0 0 75 74.999997" height="100" preserveAspectRatio="xMidYMid meet" version="1.0"><defs><clipPath id="3ae838e28c"><path d="M 1.15625 1.085938 L 73.90625 1.085938 L 73.90625 73.835938 L 1.15625 73.835938 Z M 1.15625 1.085938 " clip-rule="nonzero"/></clipPath></defs><path fill="#514796" d="M 37.53125 2.1875 C 38.683594 2.1875 39.835938 2.242188 40.988281 2.355469 C 42.136719 2.46875 43.277344 2.640625 44.410156 2.863281 C 45.542969 3.089844 46.664062 3.371094 47.769531 3.707031 C 48.875 4.042969 49.960938 4.429688 51.027344 4.871094 C 52.09375 5.3125 53.136719 5.808594 54.15625 6.351562 C 55.175781 6.894531 56.164062 7.488281 57.125 8.132812 C 58.085938 8.773438 59.015625 9.460938 59.90625 10.195312 C 60.800781 10.925781 61.65625 11.699219 62.472656 12.519531 C 63.289062 13.335938 64.0625 14.191406 64.796875 15.082031 C 65.527344 15.976562 66.214844 16.902344 66.859375 17.863281 C 67.5 18.824219 68.09375 19.8125 68.636719 20.832031 C 69.183594 21.851562 69.675781 22.894531 70.117188 23.960938 C 70.558594 25.027344 70.949219 26.113281 71.285156 27.21875 C 71.621094 28.324219 71.898438 29.445312 72.125 30.578125 C 72.351562 31.710938 72.519531 32.851562 72.632812 34.003906 C 72.746094 35.152344 72.800781 36.304688 72.800781 37.460938 C 72.800781 38.613281 72.746094 39.765625 72.632812 40.917969 C 72.519531 42.066406 72.351562 43.207031 72.125 44.339844 C 71.898438 45.472656 71.621094 46.59375 71.285156 47.699219 C 70.949219 48.804688 70.558594 49.890625 70.117188 50.957031 C 69.675781 52.023438 69.183594 53.066406 68.636719 54.085938 C 68.09375 55.105469 67.5 56.09375 66.859375 57.054688 C 66.214844 58.015625 65.527344 58.945312 64.796875 59.835938 C 64.0625 60.730469 63.289062 61.585938 62.472656 62.402344 C 61.65625 63.21875 60.800781 63.992188 59.90625 64.726562 C 59.015625 65.457031 58.085938 66.144531 57.125 66.789062 C 56.164062 67.429688 55.175781 68.023438 54.15625 68.566406 C 53.136719 69.113281 52.09375 69.605469 51.027344 70.046875 C 49.960938 70.488281 48.875 70.878906 47.769531 71.214844 C 46.664062 71.550781 45.542969 71.828125 44.410156 72.054688 C 43.277344 72.28125 42.136719 72.449219 40.988281 72.5625 C 39.835938 72.675781 38.683594 72.730469 37.53125 72.730469 C 36.375 72.730469 35.222656 72.675781 34.074219 72.5625 C 32.921875 72.449219 31.78125 72.28125 30.648438 72.054688 C 29.515625 71.828125 28.394531 71.550781 27.289062 71.214844 C 26.183594 70.878906 25.097656 70.488281 24.03125 70.046875 C 22.964844 69.605469 21.921875 69.113281 20.902344 68.566406 C 19.882812 68.023438 18.894531 67.429688 17.933594 66.789062 C 16.972656 66.144531 16.046875 65.457031 15.152344 64.726562 C 14.261719 63.992188 13.40625 63.21875 12.589844 62.402344 C 11.769531 61.585938 10.996094 60.730469 10.265625 59.835938 C 9.53125 58.945312 8.84375 58.015625 8.203125 57.054688 C 7.558594 56.09375 6.964844 55.105469 6.421875 54.085938 C 5.878906 53.066406 5.382812 52.023438 4.941406 50.957031 C 4.5 49.890625 4.113281 48.804688 3.777344 47.699219 C 3.441406 46.59375 3.160156 45.472656 2.933594 44.339844 C 2.710938 43.207031 2.539062 42.066406 2.425781 40.917969 C 2.3125 39.765625 2.257812 38.613281 2.257812 37.460938 C 2.257812 36.304688 2.3125 35.152344 2.425781 34.003906 C 2.539062 32.851562 2.710938 31.710938 2.933594 30.578125 C 3.160156 29.445312 3.441406 28.324219 3.777344 27.21875 C 4.113281 26.113281 4.5 25.027344 4.941406 23.960938 C 5.382812 22.894531 5.878906 21.851562 6.421875 20.832031 C 6.964844 19.8125 7.558594 18.824219 8.203125 17.863281 C 8.84375 16.902344 9.53125 15.976562 10.265625 15.082031 C 10.996094 14.191406 11.769531 13.335938 12.589844 12.519531 C 13.40625 11.699219 14.261719 10.925781 15.152344 10.195312 C 16.046875 9.460938 16.972656 8.773438 17.933594 8.132812 C 18.894531 7.488281 19.882812 6.894531 20.902344 6.351562 C 21.921875 5.808594 22.964844 5.3125 24.03125 4.871094 C 25.097656 4.429688 26.183594 4.042969 27.289062 3.707031 C 28.394531 3.371094 29.515625 3.089844 30.648438 2.863281 C 31.78125 2.640625 32.921875 2.46875 34.074219 2.355469 C 35.222656 2.242188 36.375 2.1875 37.53125 2.1875 Z M 37.53125 2.1875 " fill-opacity="1" fill-rule="nonzero"/><g clip-path="url(#3ae838e28c)"><path fill="#514796" d="M 73.90625 37.460938 C 73.90625 57.515625 57.585938 73.835938 37.53125 73.835938 C 17.472656 73.835938 1.15625 57.515625 1.15625 37.460938 C 1.15625 17.402344 17.472656 1.085938 37.53125 1.085938 C 57.585938 1.085938 73.90625 17.402344 73.90625 37.460938 Z M 3.359375 37.460938 C 3.359375 56.300781 18.6875 71.628906 37.53125 71.628906 C 56.371094 71.628906 71.699219 56.300781 71.699219 37.460938 C 71.699219 18.617188 56.371094 3.289062 37.53125 3.289062 C 18.6875 3.289062 3.359375 18.617188 3.359375 37.460938 Z M 3.359375 37.460938 " fill-opacity="1" fill-rule="nonzero"/></g><path fill="#ffffff" d="M 51.285156 40.382812 L 37.335938 26.945312 L 23.773438 40.40625 L 26.882812 43.539062 L 37.386719 33.109375 L 48.230469 43.5625 Z M 51.285156 40.382812 " fill-opacity="1" fill-rule="nonzero"/></svg>