<svg xmlns="http://www.w3.org/2000/svg" xmlns:xlink="http://www.w3.org/1999/xlink" width="50" zoomAndPan="magnify" viewBox="0 0 37.5 30.000001" height="40" preserveAspectRatio="xMidYMid meet" version="1.0"><defs><clipPath id="c3eaa80365"><path d="M 4.519531 0.25 L 33 0.25 L 33 28.933594 L 4.519531 28.933594 Z M 4.519531 0.25 " clip-rule="nonzero"/></clipPath><clipPath id="a04fc804ae"><path d="M 4.519531 0.25 L 33.203125 0.25 L 33.203125 28.933594 L 4.519531 28.933594 Z M 4.519531 0.25 " clip-rule="nonzero"/></clipPath></defs><g clip-path="url(#c3eaa80365)"><path fill="#2aa55d" d="M 18.859375 0.683594 C 19.773438 0.683594 20.679688 0.773438 21.574219 0.949219 C 22.46875 1.128906 23.339844 1.390625 24.183594 1.742188 C 25.027344 2.089844 25.828125 2.519531 26.585938 3.027344 C 27.347656 3.535156 28.046875 4.109375 28.695312 4.757812 C 29.339844 5.402344 29.917969 6.105469 30.425781 6.863281 C 30.929688 7.621094 31.359375 8.425781 31.710938 9.269531 C 32.058594 10.113281 32.324219 10.980469 32.5 11.878906 C 32.679688 12.773438 32.769531 13.675781 32.769531 14.589844 C 32.769531 15.503906 32.679688 16.40625 32.5 17.304688 C 32.324219 18.199219 32.058594 19.070312 31.710938 19.914062 C 31.359375 20.757812 30.929688 21.558594 30.425781 22.316406 C 29.917969 23.074219 29.339844 23.777344 28.695312 24.425781 C 28.046875 25.070312 27.347656 25.644531 26.585938 26.152344 C 25.828125 26.660156 25.027344 27.089844 24.183594 27.4375 C 23.339844 27.789062 22.46875 28.050781 21.574219 28.230469 C 20.679688 28.410156 19.773438 28.496094 18.859375 28.496094 C 17.945312 28.496094 17.042969 28.410156 16.148438 28.230469 C 15.25 28.050781 14.382812 27.789062 13.539062 27.4375 C 12.695312 27.089844 11.894531 26.660156 11.132812 26.152344 C 10.375 25.644531 9.671875 25.070312 9.027344 24.425781 C 8.378906 23.777344 7.804688 23.074219 7.296875 22.316406 C 6.789062 21.558594 6.359375 20.757812 6.011719 19.914062 C 5.664062 19.070312 5.398438 18.199219 5.21875 17.304688 C 5.042969 16.40625 4.953125 15.503906 4.953125 14.589844 C 4.953125 13.675781 5.042969 12.773438 5.21875 11.878906 C 5.398438 10.980469 5.664062 10.113281 6.011719 9.269531 C 6.359375 8.425781 6.789062 7.621094 7.296875 6.863281 C 7.804688 6.105469 8.378906 5.402344 9.027344 4.757812 C 9.671875 4.109375 10.375 3.535156 11.132812 3.027344 C 11.894531 2.519531 12.695312 2.089844 13.539062 1.742188 C 14.382812 1.390625 15.25 1.128906 16.148438 0.949219 C 17.042969 0.773438 17.945312 0.683594 18.859375 0.683594 Z M 18.859375 0.683594 " fill-opacity="1" fill-rule="nonzero"/></g><g clip-path="url(#a04fc804ae)"><path fill="#2aa55d" d="M 33.203125 14.589844 C 33.203125 22.5 26.769531 28.933594 18.859375 28.933594 C 10.953125 28.933594 4.519531 22.5 4.519531 14.589844 C 4.519531 6.683594 10.953125 0.25 18.859375 0.25 C 26.769531 0.25 33.203125 6.683594 33.203125 14.589844 Z M 5.386719 14.589844 C 5.386719 22.019531 11.429688 28.0625 18.859375 28.0625 C 26.289062 28.0625 32.332031 22.019531 32.332031 14.589844 C 32.332031 7.160156 26.289062 1.117188 18.859375 1.117188 C 11.429688 1.117188 5.386719 7.160156 5.386719 14.589844 Z M 5.386719 14.589844 " fill-opacity="1" fill-rule="nonzero"/></g><path fill="#ffffff" d="M 24.285156 15.742188 L 18.785156 10.445312 L 13.4375 15.753906 L 14.660156 16.988281 L 18.804688 12.875 L 23.078125 16.996094 Z M 24.285156 15.742188 " fill-opacity="1" fill-rule="nonzero"/></svg>