<svg xmlns="http://www.w3.org/2000/svg" xmlns:xlink="http://www.w3.org/1999/xlink" width="50" zoomAndPan="magnify" viewBox="0 0 37.5 37.499999" height="50" preserveAspectRatio="xMidYMid meet" version="1.0"><defs><clipPath id="5a80f927a8"><path d="M 0.5625 0.5625 L 36.5625 0.5625 L 36.5625 36.5625 L 0.5625 36.5625 Z M 0.5625 0.5625 " clip-rule="nonzero"/></clipPath></defs><g clip-path="url(#5a80f927a8)"><path fill="#2aa55d" d="M 18.578125 36.574219 C 28.515625 36.574219 36.574219 28.515625 36.574219 18.578125 C 36.574219 8.640625 28.515625 0.582031 18.578125 0.582031 C 8.640625 0.582031 0.582031 8.640625 0.582031 18.578125 C 0.582031 28.515625 8.640625 36.574219 18.578125 36.574219 Z M 13.09375 17.359375 C 13.183594 17.273438 13.277344 17.199219 13.378906 17.132812 L 20.132812 10.378906 C 20.460938 10.050781 20.890625 9.886719 21.320312 9.886719 C 21.75 9.886719 22.179688 10.050781 22.507812 10.378906 C 23.164062 11.035156 23.164062 12.101562 22.507812 12.757812 L 16.6875 18.578125 L 22.480469 24.367188 C 23.136719 25.023438 23.136719 26.085938 22.480469 26.742188 C 21.824219 27.398438 20.757812 27.398438 20.101562 26.742188 L 13.378906 20.019531 C 13.277344 19.957031 13.183594 19.882812 13.09375 19.792969 C 12.761719 19.457031 12.597656 19.015625 12.605469 18.578125 C 12.597656 18.136719 12.757812 17.695312 13.09375 17.359375 Z M 13.09375 17.359375 " fill-opacity="1" fill-rule="nonzero"/></g></svg>