<?xml version="1.0" encoding="UTF-8"?>
<svg width="700pt" height="700pt" version="1.1" viewBox="0 0 700 700" xmlns="http://www.w3.org/2000/svg">
 <path d="m518.07 560h-193.02c-22.977 0-44.52-11.289-57.609-30.188l-135.17-195.2c-6.4062-9.2734-9.7656-20.109-9.7656-31.344 0-21.035 11.691-39.934 30.504-49.352 14.859-7.4219 32.707-5.3203 45.395 5.3906l65.922 55.441c3.0977 2.6953 7.1406 3.2031 10.535 1.5039 3.168-1.5938 5.1445-4.7773 5.1445-8.3281v-246.68c0-33.773 27.477-61.25 61.25-61.25s61.25 27.477 61.25 61.25v144.71c0 4.1641 2.9766 7.8047 7.0703 8.6289l122.87 24.57c26.109 5.1992 45.062 28.316 45.062 54.949l-0.33203 8.8203-15.488 216.44c-1.5938 22.785-20.773 40.637-43.609 40.637zm-346.46-275.47-2.957 0.69922c-6.8789 3.4492-11.148 10.359-11.148 18.043 0 4.1133 1.2266 8.0664 3.5703 11.445l135.15 195.16c6.5273 9.4844 17.309 15.121 28.805 15.121h193.02c4.5664 0 8.3984-3.5508 8.7344-8.1211l15.488-216.51 0.22656-6.2656c0-10.012-7.1055-18.691-16.922-20.648l-122.87-24.57c-20.406-4.0781-35.211-22.137-35.211-42.926v-144.71c0-14.473-11.777-26.25-26.25-26.25s-26.25 11.777-26.25 26.25v246.68c0 16.906-9.3984 32.094-24.5 39.656-16.152 8.0312-35.332 5.582-48.914-6.1953l-65.711-55.281c-1.2422-1.0312-2.7461-1.5742-4.2695-1.5742z"/>
</svg>
