<?xml version="1.0" encoding="UTF-8"?>
<svg width="700pt" height="700pt" version="1.1" viewBox="0 0 700 700" xmlns="http://www.w3.org/2000/svg">
 <path d="m192.5 87.5c-2.7461 0.03125-5.4531-0.62891-7.875-1.9258l-35-17.5c-5.0938-3.0664-8.2852-8.5078-8.4688-14.453-0.18359-5.9414 2.6641-11.574 7.5586-14.949 4.8945-3.375 11.172-4.0312 16.66-1.7461l35 17.5c4.1211 2.0977 7.2461 5.7422 8.6875 10.137 1.4453 4.3945 1.0898 9.1797-0.98828 13.312-1.4531 2.8867-3.6797 5.3125-6.4258 7.0117-2.75 1.6992-5.918 2.6016-9.1484 2.6133zm-27.125 68.074 35-17.5c4.4922-1.8711 8-5.5234 9.6875-10.086s1.3984-9.625-0.79688-13.965c-2.1953-4.3398-6.0977-7.5742-10.773-8.918-4.6758-1.3477-9.6992-0.6875-13.867 1.8203l-35 17.5c-4.1211 2.0977-7.2461 5.7422-8.6875 10.137-1.4453 4.3945-1.0898 9.1797 0.98828 13.312 1.4531 2.8867 3.6797 5.3125 6.4258 7.0117 2.75 1.6992 5.918 2.6016 9.1484 2.6133 2.7461 0.03125 5.4531-0.62891 7.875-1.9258zm227.5-70 35-17.5c5.0938-3.0664 8.2852-8.5078 8.4688-14.453 0.18359-5.9414-2.6641-11.574-7.5586-14.949-4.8945-3.375-11.172-4.0312-16.66-1.7461l-35 17.5c-4.1211 2.0977-7.2461 5.7422-8.6875 10.137-1.4453 4.3945-1.0898 9.1797 0.98828 13.312 1.4531 2.8867 3.6797 5.3125 6.4258 7.0117 2.75 1.6992 5.918 2.6016 9.1484 2.6133 2.7461 0.03125 5.4531-0.62891 7.875-1.9258zm42.699 62.301c2.0781-4.1328 2.4336-8.918 0.98828-13.312-1.4414-4.3945-4.5664-8.0391-8.6875-10.137l-35-17.5c-5.4883-2.2852-11.766-1.6289-16.66 1.7461-4.8945 3.375-7.7422 9.0078-7.5586 14.949 0.18359 5.9453 3.375 11.387 8.4688 14.453l35 17.5c2.4219 1.2969 5.1289 1.957 7.875 1.9258 3.2305-0.011719 6.3984-0.91406 9.1484-2.6133 2.7461-1.6992 4.9727-4.125 6.4258-7.0117zm106.93 97.125h-17.5v105c0 6.2539-3.3359 12.031-8.75 15.156s-12.086 3.125-17.5 0-8.75-8.9023-8.75-15.156v-113.75c0-6.9609-2.7656-13.641-7.6875-18.562s-11.602-7.6875-18.562-7.6875h-26.25v140c0 6.2539-3.3359 12.031-8.75 15.156s-12.086 3.125-17.5 0-8.75-8.9023-8.75-15.156v-148.75c0-6.9609-2.7656-13.641-7.6875-18.562s-11.602-7.6875-18.562-7.6875h-26.25v175c0 6.2539-3.3359 12.031-8.75 15.156s-12.086 3.125-17.5 0-8.75-8.9023-8.75-15.156v-253.75c0-6.9609-2.7656-13.641-7.6875-18.562s-11.602-7.6875-18.562-7.6875-13.641 2.7656-18.562 7.6875-7.6875 11.602-7.6875 18.562v253.75c0 6.2539-3.3359 12.031-8.75 15.156s-12.086 3.125-17.5 0-8.75-8.9023-8.75-15.156v-81.898l-43.051 35c-8.8359 7.0195-15.172 16.703-18.07 27.609-2.9023 10.906-2.2109 22.457 1.9727 32.938l60.375 150.85c1.375 3.1562 3.6562 5.8398 6.5508 7.707 2.8945 1.8672 6.2773 2.8398 9.7227 2.793h245c6.1797 0 11.898-3.2617 15.051-8.5742l52.5-87.5c1.6016-2.7031 2.4492-5.7852 2.4492-8.9258v-157.5c0-4.6406-1.8438-9.0938-5.125-12.375s-7.7344-5.125-12.375-5.125z"/>
</svg>
